<mxfile host="" modified="2020-11-14T00:49:21.468Z" agent="5.0 (Macintosh; Intel Mac OS X 10_15_7) AppleWebKit/537.36 (KHTML, like Gecko) Code/1.45.0 Chrome/78.0.3904.130 Electron/7.2.4 Safari/537.36" etag="OAuGG6l9zVBDTzguVuwK" version="13.1.3">
    <diagram id="6hGFLwfOUW9BJ-s0fimq" name="Page-1">
        <mxGraphModel dx="1220" dy="351" grid="1" gridSize="10" guides="1" tooltips="1" connect="1" arrows="1" fold="1" page="1" pageScale="1" pageWidth="827" pageHeight="1169" math="0" shadow="0">
            <root>
                <mxCell id="0"/>
                <mxCell id="1" parent="0"/>
                <mxCell id="2" value="" style="verticalLabelPosition=bottom;html=1;fillColor=#A153A0;verticalAlign=top;pointerEvents=1;align=center;points=[[0.25,0,0],[0.5,0,0],[0.75,0,0],[1,0.5,0],[0.75,1,0],[0.5,1,0],[0.25,1,0],[0,0.5,0],[0.125,0.25,0],[0.125,0.75,0],[0.875,0.25,0],[0.875,0.75,0]];shape=mxgraph.cisco_safe.design.users;" vertex="1" parent="1">
                    <mxGeometry x="150" y="160" width="80" height="70" as="geometry"/>
                </mxCell>
            </root>
        </mxGraphModel>
    </diagram>
</mxfile>